# xmcd
#
# Track frame offsets:
#	182
#	14800
#	26145
#	37005
#	50750
#	63375
#	76747
#	87805
#	98237
#	111142
#
# Disc length: 1627 seconds
#
# Revision: 1
# Processed by: cddbd v1.5.1PL0 Copyright (c) Steve Scherf et al.
# Submitted via: audiograbber 1.80
#
DISCID=8006590a
DTITLE=Johnnie Ray - Cry
DYEAR=1900
DGENRE=
TTITLE0=Cry
TTITLE1=The Little White Cloud That Cried
TTITLE2=Walkin My Baby Back Home
TTITLE3=Please Mr. Sun
TTITLE4=Here I Am-Broken Hearted
TTITLE5=What's The Use?
TTITLE6=Somebocy Stole My Gal
TTITLE7=Hernando's Hideaway
TTITLE8=Just Walkin In The Rain
TTITLE9=You Don't Owe Me A Thing
EXTD=
EXTT0=
EXTT1=
EXTT2=
EXTT3=
EXTT4=
EXTT5=
EXTT6=
EXTT7=
EXTT8=
EXTT9=
PLAYORDER=
